<svg xmlns="http://www.w3.org/2000/svg" xmlns:xlink="http://www.w3.org/1999/xlink" width="500" viewBox="0 0 375 374.999991" height="500" preserveAspectRatio="xMidYMid meet"><defs><clipPath id="ab938f5082"><path d="M 56.25 61.261719 L 318.75 61.261719 L 318.75 314 L 56.25 314 Z M 56.25 61.261719 " clip-rule="nonzero"></path></clipPath></defs><g clip-path="url(#ab938f5082)"><path fill="#674386" d="M 96.28125 61.4375 C 100.871094 62.671875 105.386719 61.722656 109.902344 61.410156 C 111.835938 61.273438 113.132812 61.699219 114.480469 62.96875 C 120.355469 68.546875 126.304688 74.046875 132.230469 79.585938 C 140.847656 87.632812 149.453125 95.675781 158.074219 103.722656 C 158.859375 104.457031 159.707031 105.144531 160.679688 105.980469 C 161.554688 105.09375 162.339844 104.371094 163.0625 103.574219 C 167.265625 98.933594 171.457031 94.265625 175.648438 89.625 C 176.222656 88.992188 176.785156 88.328125 177.410156 87.742188 C 178.542969 86.683594 179.890625 86.121094 181.449219 86.394531 C 183.007812 86.671875 184.65625 86.859375 186.066406 87.507812 C 187.835938 88.316406 189.582031 88.566406 191.429688 88.328125 C 193.660156 88.042969 195.796875 88.179688 197.929688 89.078125 C 198.902344 89.488281 200.085938 89.550781 201.171875 89.515625 C 204.625 89.390625 207.65625 90.761719 210.613281 92.207031 C 211.648438 92.71875 212.433594 93.804688 213.207031 94.742188 C 220.117188 103.210938 226.992188 111.707031 233.878906 120.1875 C 260.632812 153.179688 287.390625 186.171875 314.171875 219.167969 C 315.242188 220.488281 316.453125 221.722656 317.625 222.972656 C 318.574219 223.980469 318.648438 224.878906 317.699219 225.828125 C 317.003906 226.511719 316.230469 227.125 315.480469 227.761719 C 296.394531 243.789062 277.3125 259.832031 258.226562 275.859375 C 248.632812 283.917969 239.042969 291.964844 229.460938 300.035156 C 228.25 301.058594 227.105469 302.179688 226.082031 303.402344 C 224.398438 305.410156 222.414062 307.03125 220.105469 308.230469 C 213.933594 311.433594 207.53125 313.765625 200.386719 313.132812 C 196.554688 312.792969 193.449219 311.371094 190.816406 308.378906 C 154.96875 267.476562 119.03125 226.636719 83.167969 185.738281 C 82.132812 184.5625 80.449219 183.941406 80.050781 182.21875 C 79.714844 180.785156 79.378906 179.351562 79.066406 177.914062 C 72.105469 145.246094 65.144531 112.601562 58.171875 79.972656 C 57.734375 77.925781 57.210938 75.90625 56.851562 73.859375 C 56.375 71.140625 57.074219 69.757812 59.695312 69.195312 C 63.273438 68.421875 66.816406 67.648438 70.210938 66.164062 C 71.382812 65.652344 72.855469 65.652344 74.1875 65.675781 C 76.558594 65.714844 78.839844 65.414062 81.035156 64.53125 C 83.582031 63.507812 86.226562 63.121094 88.96875 63.320312 C 91.578125 63.507812 94.144531 63.371094 96.265625 61.449219 Z M 215.765625 288.058594 C 216.824219 287.125 217.585938 286.523438 218.273438 285.851562 C 220.441406 283.679688 222.550781 281.449219 224.734375 279.289062 C 228.738281 275.3125 232.765625 271.355469 236.820312 267.414062 C 237.605469 266.652344 238.492188 265.941406 239.441406 265.433594 C 239.816406 265.230469 240.601562 265.507812 241.050781 265.804688 C 241.625 266.179688 241.660156 266.917969 241.273438 267.453125 C 240.625 268.339844 239.925781 269.199219 239.140625 269.972656 C 232.742188 276.246094 226.304688 282.496094 219.894531 288.746094 C 219.296875 289.332031 218.734375 289.957031 218.160156 290.542969 C 218.847656 291.75 219.46875 292.800781 220.96875 293.335938 C 221.839844 292.6875 222.863281 292.011719 223.773438 291.226562 C 234.078125 282.308594 244.378906 273.378906 254.671875 264.445312 C 258.664062 260.992188 262.628906 257.5 266.632812 254.066406 C 267.554688 253.28125 268.578125 252.570312 269.664062 252.035156 C 270.027344 251.859375 270.824219 252.234375 271.199219 252.597656 C 271.449219 252.832031 271.546875 253.632812 271.335938 253.90625 C 270.613281 254.878906 269.8125 255.828125 268.917969 256.625 C 265.421875 259.71875 261.832031 262.699219 258.375 265.832031 C 247.085938 276.046875 235.625 286.0625 223.613281 295.445312 C 223.363281 295.644531 223.25 296.042969 222.988281 296.515625 C 223.722656 297.277344 224.445312 298.011719 225.132812 298.722656 C 228.652344 296.328125 311.675781 226.476562 313.496094 224.40625 C 311.851562 221.675781 211.886719 98.445312 209.640625 96.363281 C 209.417969 96.4375 209.167969 96.476562 208.96875 96.597656 C 208.65625 96.800781 208.382812 97.035156 208.105469 97.285156 C 179.265625 123.980469 150.441406 150.660156 121.613281 177.355469 C 121.527344 177.429688 121.476562 177.554688 121.4375 177.679688 C 121.402344 177.792969 121.402344 177.902344 121.375 178.203125 C 122.164062 179.238281 122.824219 180.558594 124.484375 181.183594 C 125.394531 180.335938 126.304688 179.539062 127.164062 178.6875 C 136.53125 169.296875 145.886719 159.902344 155.253906 150.523438 C 155.941406 149.835938 156.691406 149.1875 157.476562 148.589844 C 158.113281 148.105469 158.824219 147.992188 159.472656 148.628906 C 160.082031 149.238281 160.132812 150 159.660156 150.625 C 158.847656 151.695312 157.949219 152.71875 157 153.667969 C 147.335938 163.273438 137.628906 172.851562 127.949219 182.445312 C 127.453125 182.929688 127.003906 183.464844 126.539062 183.964844 C 126.839844 184.488281 126.976562 184.839844 127.203125 185.113281 C 154.59375 216.945312 181.988281 248.765625 209.378906 280.585938 C 209.453125 280.675781 209.578125 280.738281 209.691406 280.773438 C 209.804688 280.8125 209.929688 280.800781 210.289062 280.835938 C 211.910156 279.078125 213.632812 277.183594 215.378906 275.324219 C 216.140625 274.523438 216.925781 273.738281 217.761719 273.027344 C 218.359375 272.515625 219.097656 272.367188 219.757812 272.953125 C 220.40625 273.527344 220.46875 274.289062 220.007812 274.9375 C 219.371094 275.835938 218.632812 276.65625 217.875 277.457031 C 215.941406 279.488281 213.933594 281.449219 212.035156 283.71875 C 213.28125 285.164062 214.394531 286.449219 215.765625 288.035156 Z M 217.921875 305.160156 C 217.488281 304.550781 217.136719 303.914062 216.640625 303.414062 C 209.015625 295.742188 202.082031 287.449219 194.984375 279.300781 C 187.238281 270.421875 179.46875 261.550781 171.734375 252.671875 C 170.609375 251.375 169.5625 250.015625 168.550781 248.628906 C 168.078125 247.96875 168.253906 246.984375 168.914062 246.722656 C 169.414062 246.523438 170.234375 246.433594 170.585938 246.707031 C 171.644531 247.519531 172.617188 248.480469 173.503906 249.492188 C 180.003906 256.863281 186.453125 264.257812 192.9375 271.632812 C 201.855469 281.773438 210.789062 291.902344 219.71875 302.03125 C 220.105469 302.464844 220.554688 302.839844 221.140625 303.390625 C 221.742188 302.691406 222.175781 302.179688 222.714844 301.542969 C 188.171875 261.402344 153.746094 221.398438 119.304688 181.394531 C 118.992188 181.035156 118.582031 180.773438 118.144531 180.410156 C 117.097656 180.871094 116.101562 181.332031 115.089844 181.757812 C 110.785156 183.578125 106.445312 185.375 101.78125 185.910156 C 98.136719 186.335938 94.445312 186.347656 90.777344 186.558594 C 90.230469 186.585938 89.542969 186.234375 89.195312 187.246094 C 89.59375 187.734375 90.03125 188.304688 90.503906 188.855469 C 92.925781 191.625 95.355469 194.394531 97.789062 197.164062 C 129.632812 233.410156 161.492188 269.648438 193.351562 305.882812 C 194.074219 306.707031 194.820312 307.542969 195.644531 308.265625 C 196.855469 309.351562 198.277344 309.789062 200.097656 309.414062 C 199.785156 308.867188 199.660156 308.527344 199.4375 308.277344 C 190.730469 298.449219 182.011719 288.621094 173.292969 278.792969 C 172.070312 277.417969 170.859375 276.023438 169.6875 274.601562 C 169.3125 274.136719 168.964844 273.566406 168.851562 273.003906 C 168.777344 272.617188 169.039062 272.019531 169.351562 271.757812 C 169.664062 271.492188 170.261719 271.394531 170.671875 271.480469 C 171.121094 271.582031 171.558594 271.917969 171.894531 272.253906 C 172.855469 273.203125 173.816406 274.164062 174.703125 275.171875 C 182.574219 284.117188 190.429688 293.0625 198.277344 302.015625 C 200.460938 304.5 202.605469 307.019531 204.714844 309.4375 C 206.867188 309.382812 208.648438 308.875 210.050781 307.917969 C 209.105469 306.945312 208.179688 305.996094 207.246094 305.0625 C 201.820312 299.546875 196.132812 294.269531 191.015625 288.496094 C 178.246094 274.0625 165.722656 259.40625 153.109375 244.824219 C 152.472656 244.089844 151.914062 243.265625 151.402344 242.429688 C 151.0625 241.867188 151.125 241.257812 151.589844 240.734375 C 152.097656 240.148438 152.960938 239.984375 153.558594 240.535156 C 154.71875 241.621094 155.867188 242.742188 156.902344 243.941406 C 166.84375 255.464844 176.722656 267.054688 186.6875 278.554688 C 195.285156 288.484375 204.589844 297.738281 213.917969 307.144531 C 215.316406 306.757812 216.664062 306.285156 217.921875 305.171875 Z M 98.75 171.515625 C 99.871094 172.039062 100.632812 171.941406 100.945312 170.867188 C 101.121094 170.292969 101.105469 169.660156 101.15625 169.046875 C 102.054688 157.421875 102.976562 145.796875 103.851562 134.171875 C 104.449219 126.210938 104.984375 118.253906 105.597656 110.296875 C 106.683594 96.101562 107.804688 81.90625 108.878906 67.710938 C 108.941406 66.898438 108.789062 66.078125 108.742188 65.089844 C 105.136719 65.304688 101.78125 65.515625 98.300781 65.726562 C 98.175781 66.5 98.050781 67.085938 98 67.683594 C 97.738281 70.867188 97.476562 74.046875 97.226562 77.226562 C 97.140625 78.324219 97.203125 79.496094 96.355469 80.332031 C 96.054688 80.632812 95.46875 80.84375 95.070312 80.769531 C 94.671875 80.695312 94.183594 80.257812 94.058594 79.871094 C 93.871094 79.324219 93.945312 78.675781 93.972656 78.074219 C 94.109375 75.007812 94.269531 71.953125 94.394531 68.882812 C 94.421875 68.183594 94.269531 67.484375 94.183594 66.613281 C 90.777344 67.421875 87.421875 66.164062 84.042969 67.472656 C 84.03125 69.257812 83.929688 70.953125 84.003906 72.664062 C 84.429688 82.105469 84.902344 91.546875 85.339844 100.992188 C 85.402344 102.335938 85.425781 103.695312 85.363281 105.03125 C 85.316406 106.117188 84.714844 106.726562 83.867188 106.839844 C 83.03125 106.941406 82.472656 106.355469 82.332031 105.195312 C 82.308594 104.957031 82.308594 104.707031 82.296875 104.457031 C 81.882812 97.597656 81.460938 90.738281 81.074219 83.875 C 80.8125 79.335938 80.613281 74.808594 80.363281 70.265625 C 80.339844 69.792969 80.175781 69.332031 80.0625 68.78125 C 78.867188 68.921875 77.792969 69.105469 76.707031 69.167969 C 75.484375 69.246094 74.25 69.167969 73.027344 69.21875 C 71.695312 69.269531 70.335938 69.332031 69.261719 70.492188 C 69.347656 71.464844 69.4375 72.4375 69.546875 73.398438 C 69.859375 76.082031 70.222656 78.761719 70.496094 81.445312 C 70.660156 83.015625 70.070312 83.9375 69.035156 83.949219 C 68.136719 83.976562 67.601562 83.402344 67.367188 81.894531 C 66.980469 79.472656 66.691406 77.027344 66.355469 74.597656 C 66.21875 73.648438 66.316406 72.601562 65.230469 71.75 C 63.734375 71.703125 62.078125 71.652344 60.316406 72.5625 C 60.515625 73.710938 60.65625 74.796875 60.890625 75.855469 C 66.667969 102.972656 72.453125 130.089844 78.253906 157.210938 C 79.714844 164.046875 81.171875 170.878906 82.65625 177.714844 C 82.808594 178.378906 82.769531 179.238281 83.78125 179.351562 C 84.617188 178.703125 84.316406 177.816406 84.179688 177.019531 C 83.65625 173.875 83.058594 170.742188 82.519531 167.601562 C 80.386719 155.261719 78.265625 142.925781 76.148438 130.601562 C 75.421875 126.375 74.648438 122.144531 73.976562 117.90625 C 73.738281 116.433594 74.425781 115.398438 75.410156 115.359375 C 76.273438 115.324219 76.996094 115.972656 77.28125 117.292969 C 77.71875 119.328125 78.054688 121.398438 78.40625 123.457031 C 81.074219 139.183594 83.707031 154.914062 86.414062 170.632812 C 86.710938 172.390625 86.773438 174.234375 87.511719 175.921875 C 89.78125 175.035156 89.90625 174.910156 89.855469 173.539062 C 89.84375 173.050781 89.769531 172.566406 89.71875 172.078125 C 88.84375 164.03125 87.960938 155.972656 87.085938 147.929688 C 86.761719 144.996094 86.425781 142.078125 86.152344 139.148438 C 86.0625 138.175781 86 137.175781 86.1875 136.230469 C 86.277344 135.78125 86.949219 135.167969 87.398438 135.132812 C 87.871094 135.09375 88.570312 135.53125 88.84375 135.980469 C 89.207031 136.578125 89.320312 137.363281 89.417969 138.085938 C 89.855469 141.492188 90.316406 144.898438 90.652344 148.316406 C 91.425781 156.011719 92.125 163.707031 92.875 171.40625 C 92.925781 171.964844 93.199219 172.503906 93.335938 172.953125 C 94.382812 173.136719 95.03125 172.9375 95.21875 172.027344 C 95.320312 171.554688 95.320312 171.054688 95.320312 170.570312 C 95.34375 163.445312 95.417969 156.324219 95.367188 149.214844 C 95.257812 134.96875 95.058594 120.734375 94.90625 106.492188 C 94.90625 105.644531 94.90625 104.746094 95.15625 103.945312 C 95.304688 103.472656 95.90625 103.011719 96.402344 102.824219 C 97.027344 102.585938 97.839844 103.246094 98.011719 103.996094 C 98.152344 104.59375 98.226562 105.207031 98.261719 105.816406 C 98.386719 107.777344 98.550781 109.734375 98.5625 111.707031 C 98.613281 130.738281 98.625 149.761719 98.660156 168.796875 C 98.660156 169.757812 98.75 170.707031 98.785156 171.578125 Z M 104.847656 167.226562 C 105.558594 166.988281 105.859375 166.988281 105.996094 166.839844 C 123.171875 147.804688 140.324219 128.769531 157.476562 109.710938 C 157.710938 109.449219 157.800781 109.074219 158.011719 108.625 C 157.339844 107.925781 156.691406 107.214844 155.992188 106.566406 C 142.457031 93.917969 128.9375 81.269531 115.390625 68.644531 C 114.640625 67.949219 114.054688 66.910156 112.757812 66.863281 C 112.59375 67.273438 112.371094 67.597656 112.34375 67.933594 C 109.851562 100.941406 107.355469 133.933594 104.847656 167.238281 Z M 118.308594 175.558594 C 147.296875 148.753906 176.023438 122.183594 204.738281 95.613281 C 205.089844 95.289062 205.335938 94.867188 205.710938 94.390625 C 203.328125 92.207031 200.558594 93.167969 198.128906 92.96875 C 194.546875 96.414062 191.117188 99.730469 187.664062 103.035156 C 187.226562 103.460938 186.75 103.859375 186.253906 104.207031 C 185.230469 104.90625 184.058594 104.84375 183.59375 104.109375 C 183.222656 103.523438 183.472656 102.636719 184.257812 101.839844 C 187.027344 99.058594 189.820312 96.300781 192.578125 93.507812 C 192.976562 93.105469 193.613281 92.820312 193.476562 91.960938 C 193.164062 91.882812 192.828125 91.710938 192.527344 91.746094 C 189.632812 92.160156 186.9375 91.699219 184.355469 90.261719 C 183.046875 89.527344 181.5625 89.402344 180.089844 89.886719 C 179.480469 90.539062 178.894531 91.160156 178.320312 91.796875 C 162.464844 109.386719 146.625 126.984375 130.769531 144.574219 C 123.136719 153.054688 115.488281 161.523438 107.878906 170.019531 C 107.367188 170.59375 106.421875 171.03125 106.894531 172.253906 C 108.878906 172.515625 110.921875 172.789062 112.933594 173.050781 C 120.054688 165.839844 127.003906 158.742188 134.039062 151.734375 C 146.039062 139.785156 158.085938 127.894531 170.125 115.984375 C 170.910156 115.210938 171.746094 114.472656 172.617188 113.8125 C 173.515625 113.113281 174.363281 113.101562 174.964844 113.625 C 175.5625 114.136719 175.613281 115.136719 174.9375 115.945312 C 174.152344 116.882812 173.28125 117.753906 172.40625 118.617188 C 159.011719 131.9375 145.625 145.273438 132.214844 158.582031 C 127.949219 162.808594 123.609375 166.976562 119.304688 171.179688 C 118.359375 172.117188 117.410156 173.050781 116.335938 174.113281 C 117.023438 174.609375 117.496094 174.960938 118.296875 175.546875 Z M 114.726562 177.566406 C 113.480469 177.140625 112.707031 176.742188 111.898438 176.632812 C 109.238281 176.257812 106.558594 176.058594 103.902344 175.671875 C 97.675781 174.773438 92.363281 176.804688 87.621094 180.683594 C 87.171875 181.058594 86.613281 181.433594 86.847656 182.183594 C 94.796875 184.351562 107.457031 182.367188 114.726562 177.566406 Z M 114.726562 177.566406 " fill-opacity="1" fill-rule="nonzero"></path></g><path fill="#674386" d="M 232.28125 198.148438 C 230.460938 200.816406 228.875 203.148438 227.140625 205.683594 C 227.679688 206.269531 228.214844 206.890625 228.777344 207.464844 C 236.695312 215.6875 244.804688 223.730469 251.964844 232.652344 C 252.875 233.796875 253.734375 234.996094 254.496094 236.242188 C 254.945312 236.964844 254.597656 237.777344 253.898438 238.125 C 253.449219 238.351562 252.699219 238.3125 252.226562 238.101562 C 251.703125 237.863281 251.277344 237.339844 250.902344 236.855469 C 243.804688 227.722656 235.488281 219.691406 227.789062 211.109375 C 226.917969 210.125 226.082031 209.039062 224.695312 208.390625 C 222.699219 210.074219 220.742188 211.707031 218.648438 213.480469 C 218.871094 214.277344 219.007812 215.113281 219.359375 215.847656 C 221.09375 219.640625 222.886719 223.40625 224.660156 227.1875 C 225.070312 228.074219 225.519531 228.957031 225.84375 229.867188 C 226.117188 230.65625 225.808594 231.339844 225.097656 231.738281 C 224.347656 232.152344 223.613281 231.914062 223.136719 231.277344 C 222.550781 230.503906 222.003906 229.667969 221.589844 228.796875 C 220.144531 225.679688 218.773438 222.535156 217.363281 219.402344 C 216.8125 218.179688 216.253906 216.972656 215.640625 215.648438 C 213.296875 216.011719 211.511719 217.394531 209.179688 217.957031 C 209.277344 219.042969 209.265625 220.003906 209.453125 220.925781 C 210.015625 223.695312 210.6875 226.425781 211.25 229.195312 C 211.472656 230.269531 211.625 231.378906 211.5625 232.464844 C 211.535156 232.9375 211 233.511719 210.539062 233.824219 C 210.039062 234.160156 209.003906 233.648438 208.753906 232.949219 C 208.382812 231.914062 208.058594 230.855469 207.84375 229.78125 C 207.285156 227.011719 206.820312 224.230469 206.273438 221.460938 C 206.109375 220.636719 205.785156 219.839844 205.511719 218.953125 C 204.550781 218.953125 203.703125 218.992188 202.855469 218.953125 C 201.144531 218.867188 199.414062 218.878906 197.726562 218.59375 C 195.257812 218.179688 192.828125 217.519531 192.238281 214.390625 C 191.21875 214.453125 190.394531 214.464844 189.570312 214.578125 C 187.136719 214.902344 184.71875 215.273438 182.285156 215.585938 C 181.425781 215.699219 180.578125 215.648438 179.855469 215.039062 C 179.28125 214.539062 179.21875 213.617188 179.742188 213.09375 C 180.503906 212.332031 181.460938 212.230469 182.449219 212.132812 C 184.769531 211.894531 187.074219 211.621094 189.394531 211.332031 C 189.859375 211.269531 190.304688 211.070312 190.855469 210.910156 C 191.292969 208.761719 190.894531 206.71875 190.816406 204.496094 C 190.105469 204.308594 189.445312 204.035156 188.746094 203.960938 C 185.078125 203.585938 181.414062 203.273438 177.757812 202.914062 C 176.785156 202.8125 175.800781 202.703125 174.839844 202.515625 C 174.054688 202.363281 173.542969 201.851562 173.453125 201.03125 C 173.367188 200.269531 174.117188 199.53125 175.136719 199.457031 C 175.988281 199.394531 176.859375 199.371094 177.707031 199.457031 C 181.363281 199.84375 185.019531 200.269531 188.683594 200.667969 C 189.394531 200.742188 190.121094 200.769531 191.019531 200.816406 C 191.417969 199.058594 191.730469 197.386719 192.164062 195.753906 C 192.578125 194.21875 193.101562 192.734375 193.5625 191.273438 C 192.777344 190.039062 191.480469 189.828125 190.394531 189.328125 C 186.054688 187.320312 181.675781 185.375 177.332031 183.367188 C 176.460938 182.957031 175.574219 182.445312 174.902344 181.78125 C 174.578125 181.472656 174.503906 180.558594 174.726562 180.136719 C 174.9375 179.722656 175.738281 179.277344 176.175781 179.363281 C 177.234375 179.5625 178.28125 179.988281 179.28125 180.449219 C 183.609375 182.480469 187.925781 184.550781 192.238281 186.609375 C 193.113281 187.023438 194.011719 187.394531 195.121094 187.882812 C 196.628906 185.761719 198.101562 183.703125 199.660156 181.535156 C 198.5 180.222656 197.441406 179.050781 196.40625 177.839844 C 190.46875 170.804688 184.519531 163.78125 178.617188 156.722656 C 177.683594 155.601562 176.871094 154.367188 176.125 153.09375 C 175.738281 152.417969 175.875 151.597656 176.558594 151.109375 C 177.222656 150.636719 178.007812 150.746094 178.59375 151.285156 C 179.21875 151.859375 179.742188 152.558594 180.289062 153.21875 C 186.949219 161.25 193.585938 169.296875 200.261719 177.316406 C 200.796875 177.953125 201.445312 178.503906 202.167969 179.214844 C 203.839844 177.941406 205.375 176.78125 206.773438 175.71875 C 207.433594 174.125 206.773438 172.875 206.347656 171.617188 C 204.664062 166.613281 202.953125 161.625 201.285156 156.625 C 200.972656 155.699219 200.683594 154.726562 200.671875 153.777344 C 200.671875 153.316406 201.222656 152.605469 201.683594 152.445312 C 202.132812 152.28125 203.042969 152.496094 203.292969 152.855469 C 203.902344 153.742188 204.363281 154.777344 204.703125 155.8125 C 206.234375 160.476562 207.707031 165.15625 209.203125 169.820312 C 209.542969 170.855469 209.902344 171.890625 210.238281 172.890625 C 212.535156 172.714844 213.296875 172.441406 216.601562 170.542969 C 216.625 167.75 216.601562 164.832031 216.351562 161.898438 C 216.277344 161.050781 216.277344 160.191406 216.375 159.355469 C 216.464844 158.582031 217.289062 157.921875 217.9375 158.132812 C 218.460938 158.308594 219.109375 158.707031 219.296875 159.167969 C 219.59375 159.941406 219.632812 160.839844 219.65625 161.6875 C 219.71875 163.644531 219.683594 165.617188 219.746094 167.574219 C 219.769531 168.273438 219.957031 168.960938 220.09375 169.769531 C 222.5625 169.570312 224.871094 169.382812 227.367188 169.183594 C 227.527344 168.535156 227.816406 167.863281 227.863281 167.175781 C 228.015625 165.21875 228.066406 163.257812 228.164062 161.289062 C 228.203125 160.550781 228.214844 159.816406 228.3125 159.082031 C 228.488281 157.695312 229.039062 156.984375 229.898438 156.933594 C 230.757812 156.886719 231.382812 157.683594 231.445312 159.042969 C 231.484375 159.902344 231.445312 160.765625 231.421875 161.625 C 231.320312 164.070312 231.207031 166.515625 231.097656 169.148438 C 231.917969 169.421875 232.691406 169.78125 233.492188 169.921875 C 235.636719 170.28125 236.660156 171.578125 236.882812 173.648438 C 237.019531 174.871094 237.171875 176.082031 237.269531 177.304688 C 237.34375 178.277344 237.371094 179.25 237.421875 180.171875 C 238.503906 181.285156 239.890625 181.433594 241.175781 181.746094 C 243.558594 182.332031 245.964844 182.792969 248.359375 183.316406 C 249.082031 183.464844 249.804688 183.605469 250.503906 183.828125 C 251.566406 184.164062 252.050781 184.828125 251.964844 185.675781 C 251.863281 186.597656 251.027344 187.144531 249.730469 187.023438 C 248.882812 186.945312 248.035156 186.761719 247.199219 186.558594 C 244.34375 185.863281 241.5 185.113281 238.640625 184.402344 C 238.191406 184.289062 237.71875 184.253906 237.234375 184.175781 C 236.121094 187.808594 235.050781 191.300781 233.914062 195.015625 C 234.527344 195.402344 235.175781 195.953125 235.921875 196.277344 C 239.054688 197.675781 242.234375 198.996094 245.378906 200.367188 C 246.265625 200.753906 247.1875 201.167969 247.910156 201.789062 C 248.234375 202.066406 248.257812 202.9375 248.109375 203.449219 C 248.011719 203.800781 247.386719 204.234375 247.011719 204.234375 C 246.175781 204.222656 245.289062 204.085938 244.53125 203.75 C 241.710938 202.539062 238.929688 201.253906 236.148438 199.96875 C 234.9375 199.40625 233.738281 198.796875 232.332031 198.109375 Z M 233.078125 173.300781 C 230.410156 172.515625 227.839844 172.726562 225.28125 172.863281 C 212.847656 173.5625 201.007812 182.207031 196.457031 193.78125 C 194.324219 199.195312 194.222656 204.796875 194.773438 210.460938 C 194.847656 211.183594 195.109375 211.894531 195.285156 212.605469 C 195.59375 213.914062 196.355469 214.738281 197.726562 215.011719 C 199.910156 215.460938 202.082031 215.699219 204.300781 215.375 C 208.644531 214.75 212.597656 213.167969 216.191406 210.710938 C 223.511719 205.683594 228.5625 198.898438 231.621094 190.601562 C 233.390625 185.8125 234.101562 180.859375 233.601562 175.769531 C 233.527344 174.945312 233.253906 174.136719 233.066406 173.289062 Z M 233.078125 173.300781 " fill-opacity="1" fill-rule="nonzero"></path><path fill="#674386" d="M 289.558594 236.28125 C 289.433594 236.53125 289.273438 237.152344 288.886719 237.578125 C 288.074219 238.488281 287.179688 239.335938 286.28125 240.160156 C 284.023438 242.230469 281.765625 244.300781 279.46875 246.335938 C 278.746094 246.984375 277.933594 247.570312 277.085938 248.03125 C 276.414062 248.390625 275.640625 248.28125 275.078125 247.644531 C 274.640625 247.132812 274.753906 246.195312 275.351562 245.648438 C 276.4375 244.652344 277.574219 243.726562 278.644531 242.71875 C 280.878906 240.621094 283.050781 238.464844 285.308594 236.378906 C 286.019531 235.730469 286.839844 235.183594 287.703125 234.746094 C 288.488281 234.347656 289.574219 235.109375 289.558594 236.269531 Z M 289.558594 236.28125 " fill-opacity="1" fill-rule="nonzero"></path><path fill="#674386" d="M 172.84375 135.367188 C 173.253906 135.816406 173.777344 136.179688 173.953125 136.652344 C 174.089844 137.027344 173.953125 137.675781 173.679688 138.011719 C 172.308594 139.734375 170.699219 141.207031 168.726562 142.242188 C 167.992188 142.628906 167.292969 142.492188 166.742188 141.878906 C 166.28125 141.367188 166.382812 140.433594 166.96875 139.894531 C 168.414062 138.597656 169.875 137.3125 171.371094 136.078125 C 171.71875 135.78125 172.21875 135.65625 172.820312 135.367188 Z M 172.84375 135.367188 " fill-opacity="1" fill-rule="nonzero"></path><path fill="#674386" d="M 255.59375 253.65625 C 255.582031 253.78125 255.59375 253.917969 255.542969 254.003906 C 254.347656 256.039062 252.789062 257.683594 250.515625 258.484375 C 250.179688 258.609375 249.519531 258.320312 249.269531 258.023438 C 249.019531 257.710938 248.882812 256.988281 249.082031 256.699219 C 250.34375 254.917969 251.851562 253.332031 253.847656 252.359375 C 254.632812 251.972656 255.707031 252.832031 255.59375 253.644531 Z M 255.59375 253.65625 " fill-opacity="1" fill-rule="nonzero"></path><path fill="#674386" d="M 184.21875 126.3125 C 184.15625 126.773438 184.183594 127.035156 184.082031 127.234375 C 183.132812 128.96875 181.847656 130.414062 180.152344 131.425781 C 179.578125 131.761719 178.867188 131.6875 178.554688 131.089844 C 178.308594 130.617188 178.132812 129.753906 178.394531 129.441406 C 179.527344 128.035156 180.789062 126.722656 182.097656 125.464844 C 182.347656 125.214844 183.058594 125.238281 183.445312 125.402344 C 183.820312 125.5625 184.042969 126.0625 184.230469 126.300781 Z M 184.21875 126.3125 " fill-opacity="1" fill-rule="nonzero"></path><path fill="#674386" d="M 196.84375 140.21875 C 197.429688 140.632812 198.015625 140.832031 198.152344 141.179688 C 198.738281 142.777344 199.261719 144.398438 199.6875 146.046875 C 199.847656 146.667969 199.460938 147.355469 198.8125 147.441406 C 198.300781 147.515625 197.480469 147.355469 197.21875 146.980469 C 196.09375 145.484375 195.570312 143.6875 195.558594 141.839844 C 195.558594 141.332031 196.34375 140.820312 196.855469 140.207031 Z M 196.84375 140.21875 " fill-opacity="1" fill-rule="nonzero"></path><path fill="#674386" d="M 215.914062 150.273438 C 215.953125 150.050781 216.003906 149.050781 216.351562 148.179688 C 216.527344 147.765625 217.289062 147.441406 217.796875 147.394531 C 218.109375 147.367188 218.683594 147.890625 218.785156 148.265625 C 219.257812 149.9375 219.234375 151.644531 218.371094 153.179688 C 218.160156 153.554688 217.363281 153.777344 216.839844 153.753906 C 216.515625 153.753906 216.050781 153.191406 215.941406 152.804688 C 215.789062 152.246094 215.902344 151.609375 215.902344 150.273438 Z M 215.914062 150.273438 " fill-opacity="1" fill-rule="nonzero"></path><path fill="#674386" d="M 166.617188 175.582031 C 167.964844 175.871094 169.574219 176.332031 170.546875 177.914062 C 170.984375 178.625 170.335938 179.847656 169.5 179.773438 C 167.765625 179.625 166.246094 178.964844 165.195312 177.515625 C 164.746094 176.894531 165.484375 175.644531 166.617188 175.597656 Z M 166.617188 175.582031 " fill-opacity="1" fill-rule="nonzero"></path><path fill="#674386" d="M 214.792969 243.105469 C 214.554688 243.429688 214.304688 243.988281 213.871094 244.3125 C 213.308594 244.726562 212.347656 244.414062 212.046875 243.691406 C 211.597656 242.59375 211.1875 241.457031 211 240.296875 C 210.9375 239.910156 211.535156 239.25 211.984375 238.988281 C 212.273438 238.824219 212.957031 239.023438 213.285156 239.285156 C 214.394531 240.199219 214.519531 241.558594 214.792969 243.105469 Z M 214.792969 243.105469 " fill-opacity="1" fill-rule="nonzero"></path><path fill="#674386" d="M 294.863281 229.246094 C 294.910156 228.734375 294.863281 228.445312 294.960938 228.261719 C 295.699219 226.976562 296.644531 225.851562 298.03125 225.304688 C 298.464844 225.128906 299.214844 225.367188 299.625 225.679688 C 299.886719 225.878906 299.988281 226.636719 299.824219 226.988281 C 299.152344 228.472656 298.042969 229.632812 296.46875 230.082031 C 296.023438 230.207031 295.335938 229.519531 294.863281 229.257812 Z M 294.863281 229.246094 " fill-opacity="1" fill-rule="nonzero"></path><path fill="#674386" d="M 168.339844 201.976562 C 166.269531 201.878906 165.183594 201.128906 165.371094 200.15625 C 165.546875 199.222656 166.457031 198.757812 168.027344 198.859375 C 168.628906 198.898438 169.300781 198.933594 169.761719 199.246094 C 170.1875 199.53125 170.648438 200.21875 170.597656 200.667969 C 170.535156 201.117188 169.910156 201.578125 169.425781 201.839844 C 169.039062 202.050781 168.476562 201.964844 168.328125 201.976562 Z M 168.339844 201.976562 " fill-opacity="1" fill-rule="nonzero"></path><path fill="#674386" d="M 252.988281 207.628906 C 251.925781 207.066406 250.917969 206.679688 250.09375 206.03125 C 249.78125 205.78125 249.757812 204.921875 249.90625 204.410156 C 249.992188 204.085938 250.691406 203.648438 251.003906 203.722656 C 252.027344 203.972656 253.050781 204.347656 253.984375 204.847656 C 254.507812 205.132812 254.746094 205.855469 254.371094 206.429688 C 254.074219 206.878906 253.535156 207.179688 253 207.628906 Z M 252.988281 207.628906 " fill-opacity="1" fill-rule="nonzero"></path><path fill="#674386" d="M 257.589844 188.617188 C 257.289062 188.570312 256.703125 188.628906 256.367188 188.367188 C 255.945312 188.042969 255.46875 187.445312 255.496094 186.996094 C 255.519531 186.535156 256.054688 185.875 256.503906 185.722656 C 257.152344 185.511719 257.9375 185.613281 258.648438 185.710938 C 259.335938 185.8125 260.035156 186.820312 259.746094 187.347656 C 259.484375 187.820312 258.949219 188.167969 258.476562 188.507812 C 258.300781 188.628906 258 188.570312 257.578125 188.617188 Z M 257.589844 188.617188 " fill-opacity="1" fill-rule="nonzero"></path><path fill="#674386" d="M 229.285156 238.738281 C 229.085938 239.0625 228.925781 239.609375 228.5625 239.796875 C 228.203125 239.996094 227.554688 240.011719 227.203125 239.796875 C 226.195312 239.222656 225.644531 238.238281 225.582031 237.105469 C 225.558594 236.703125 225.894531 236.132812 226.230469 235.917969 C 226.582031 235.707031 227.230469 235.683594 227.589844 235.867188 C 228.636719 236.40625 229.074219 237.414062 229.285156 238.726562 Z M 229.285156 238.738281 " fill-opacity="1" fill-rule="nonzero"></path><path fill="#674386" d="M 164.335938 241.382812 C 163.863281 241.882812 163.527344 242.554688 163.050781 242.667969 C 162.589844 242.78125 161.828125 242.480469 161.480469 242.09375 C 156.566406 236.605469 151.699219 231.078125 146.847656 225.554688 C 145.960938 224.542969 145.101562 223.496094 144.289062 222.410156 C 143.929688 221.9375 143.542969 221.335938 143.515625 220.789062 C 143.492188 220.277344 143.816406 219.628906 144.203125 219.265625 C 144.453125 219.03125 145.152344 219.054688 145.539062 219.230469 C 146.074219 219.464844 146.574219 219.890625 146.972656 220.339844 C 152.363281 226.550781 157.738281 232.777344 163.078125 239.023438 C 163.613281 239.648438 163.875 240.496094 164.324219 241.371094 Z M 164.335938 241.382812 " fill-opacity="1" fill-rule="nonzero"></path><path fill="#674386" d="M 141.359375 215.25 C 141.335938 216.710938 140.125 217.457031 139.4375 216.996094 C 137.679688 215.8125 136.382812 214.203125 135.597656 212.242188 C 135.460938 211.894531 135.648438 211.121094 135.921875 210.945312 C 136.371094 210.671875 137.207031 210.472656 137.554688 210.722656 C 139.277344 211.933594 140.488281 213.617188 141.347656 215.535156 C 141.398438 215.636719 141.347656 215.773438 141.347656 215.261719 Z M 141.359375 215.25 " fill-opacity="1" fill-rule="nonzero"></path><path fill="#674386" d="M 144.976562 234.496094 C 144.753906 234.460938 144.613281 234.484375 144.527344 234.421875 C 142.707031 233.210938 141.160156 231.738281 140.585938 229.53125 C 140.375 228.722656 141.472656 227.9375 142.28125 228.222656 C 142.507812 228.308594 142.792969 228.359375 142.929688 228.523438 C 144.003906 229.808594 145.125 231.066406 146.074219 232.4375 C 146.300781 232.777344 146.023438 233.546875 145.8125 234.046875 C 145.714844 234.296875 145.226562 234.371094 144.988281 234.496094 Z M 144.976562 234.496094 " fill-opacity="1" fill-rule="nonzero"></path><path fill="#674386" d="M 131.691406 204.398438 C 131.742188 205.171875 130.542969 205.957031 129.808594 205.558594 C 128.136719 204.660156 127.039062 203.210938 126.378906 201.464844 C 126.253906 201.140625 126.578125 200.492188 126.890625 200.21875 C 127.1875 199.957031 127.875 199.769531 128.175781 199.945312 C 129.820312 200.867188 130.832031 202.375 131.640625 204.035156 C 131.691406 204.136719 131.667969 204.273438 131.679688 204.398438 Z M 131.691406 204.398438 " fill-opacity="1" fill-rule="nonzero"></path><path fill="#674386" d="M 74.863281 109.398438 C 74.523438 109.683594 74.0625 110.320312 73.488281 110.457031 C 73.101562 110.546875 72.441406 110.007812 72.09375 109.609375 C 71.792969 109.273438 71.707031 108.722656 71.617188 108.25 C 70.757812 103.671875 69.898438 99.105469 69.074219 94.515625 C 68.949219 93.816406 68.863281 93.019531 69.074219 92.371094 C 69.222656 91.910156 69.847656 91.460938 70.347656 91.3125 C 70.683594 91.210938 71.320312 91.523438 71.582031 91.847656 C 71.941406 92.296875 72.21875 92.90625 72.316406 93.492188 C 73.203125 98.558594 74.039062 103.632812 74.886719 108.710938 C 74.910156 108.835938 74.886719 108.960938 74.886719 109.410156 Z M 74.863281 109.398438 " fill-opacity="1" fill-rule="nonzero"></path><path fill="#674386" d="M 88.433594 128.644531 C 88.394531 128.96875 88.371094 129.582031 88.246094 130.179688 C 88.109375 130.851562 87.148438 131.601562 86.613281 131.351562 C 86.125 131.125 85.527344 130.589844 85.464844 130.128906 C 84.765625 125.277344 84.15625 120.425781 83.570312 115.558594 C 83.492188 114.972656 83.53125 114.289062 83.78125 113.777344 C 84.019531 113.300781 84.578125 112.753906 85.039062 112.703125 C 85.515625 112.652344 86.089844 113.113281 86.523438 113.488281 C 86.761719 113.6875 86.863281 114.136719 86.898438 114.5 C 87.410156 119.128906 87.910156 123.753906 88.433594 128.667969 Z M 88.433594 128.644531 " fill-opacity="1" fill-rule="nonzero"></path><path fill="#674386" d="M 94.085938 91.324219 C 94.171875 90.089844 94.195312 88.617188 94.445312 87.195312 C 94.519531 86.78125 95.269531 86.234375 95.71875 86.222656 C 96.179688 86.222656 97.027344 86.796875 97.039062 87.132812 C 97.128906 89.914062 97.066406 92.707031 97.027344 95.5 C 97.027344 95.714844 96.839844 96.011719 96.652344 96.101562 C 96.242188 96.300781 95.730469 96.574219 95.34375 96.488281 C 94.957031 96.398438 94.433594 95.925781 94.382812 95.5625 C 94.195312 94.242188 94.183594 92.894531 94.085938 91.335938 Z M 94.085938 91.324219 " fill-opacity="1" fill-rule="nonzero"></path><path fill="#674386" d="M 124.332031 93.269531 C 123.0625 96.722656 124.28125 100.703125 122.734375 104.296875 C 122.597656 104.621094 122.535156 105.03125 122.585938 105.382812 C 122.949219 107.863281 122.660156 110.207031 121.714844 112.566406 C 121.351562 113.464844 121.761719 114.722656 121.976562 115.796875 C 122.335938 117.617188 121.925781 119.226562 120.789062 120.625 C 120.480469 121.011719 119.753906 121.246094 119.230469 121.234375 C 118.59375 121.222656 117.957031 120.164062 118.222656 119.515625 C 118.980469 117.691406 118.644531 115.957031 118.28125 114.113281 C 118.082031 113.089844 118.28125 111.878906 118.683594 110.90625 C 119.242188 109.472656 119.367188 108.074219 119.21875 106.589844 C 119.132812 105.742188 119.019531 104.792969 119.304688 104.035156 C 120.566406 100.628906 119.566406 96.9375 120.742188 93.53125 C 120.941406 92.957031 120.988281 92.269531 121.339844 91.820312 C 121.675781 91.398438 122.289062 91.074219 122.824219 90.949219 C 123.421875 90.824219 124.207031 91.671875 124.296875 92.347656 C 124.320312 92.582031 124.320312 92.832031 124.34375 93.257812 Z M 124.332031 93.269531 " fill-opacity="1" fill-rule="nonzero"></path><path fill="#674386" d="M 125.878906 135.082031 C 126.152344 133.523438 126.242188 131.898438 126.753906 130.414062 C 127.351562 128.65625 127.652344 126.875 127.914062 125.050781 C 128.136719 123.480469 128.535156 121.933594 128.785156 120.363281 C 128.984375 119.039062 129.023438 117.679688 129.222656 116.34375 C 129.347656 115.507812 129.546875 114.648438 129.910156 113.902344 C 130.058594 113.578125 130.746094 113.339844 131.15625 113.363281 C 131.566406 113.390625 132.078125 113.714844 132.328125 114.0625 C 132.589844 114.425781 132.679688 114.972656 132.691406 115.449219 C 132.714844 117.40625 132.789062 119.351562 132.167969 121.285156 C 131.71875 122.667969 131.441406 124.152344 131.304688 125.601562 C 131.132812 127.445312 130.730469 129.195312 130.097656 130.953125 C 129.570312 132.410156 129.585938 134.058594 129.324219 135.617188 C 129.171875 136.566406 129.097656 137.5625 128.710938 138.425781 C 128.550781 138.785156 127.6875 139.011719 127.152344 138.984375 C 126.816406 138.972656 126.277344 138.410156 126.230469 138.039062 C 126.089844 137.078125 126.179688 136.089844 126.179688 135.105469 C 126.078125 135.105469 125.980469 135.082031 125.878906 135.070312 Z M 125.878906 135.082031 " fill-opacity="1" fill-rule="nonzero"></path><path fill="#674386" d="M 113.519531 147.09375 C 111.847656 143.988281 112.894531 141.292969 115.175781 138.871094 C 115.003906 137.949219 114.839844 137.125 114.691406 136.289062 C 114.503906 135.28125 114.640625 134.246094 115.351562 133.546875 C 116.574219 132.335938 116.910156 130.890625 117.023438 129.253906 C 117.074219 128.445312 117.695312 127.972656 118.53125 127.972656 C 119.367188 127.972656 119.90625 128.496094 120.078125 129.269531 C 120.464844 130.976562 120.503906 132.660156 119.40625 134.171875 C 119.054688 134.65625 118.695312 135.144531 118.546875 135.367188 C 118.507812 137.113281 118.78125 138.636719 118.371094 139.945312 C 117.945312 141.28125 116.835938 142.390625 116.011719 143.625 C 116.261719 144.734375 116.585938 145.785156 116.738281 146.867188 C 117.011719 148.890625 115.515625 150.761719 113.519531 151.023438 C 112.671875 151.132812 111.773438 150.148438 112.121094 149.375 C 112.457031 148.613281 112.996094 147.953125 113.53125 147.09375 Z M 113.519531 147.09375 " fill-opacity="1" fill-rule="nonzero"></path><path fill="#674386" d="M 139.140625 120.535156 C 139.226562 119.699219 139.265625 118.714844 139.425781 117.753906 C 139.777344 115.722656 140.199219 113.6875 140.597656 111.65625 C 140.671875 111.292969 140.699219 110.917969 140.8125 110.582031 C 141.046875 109.808594 141.585938 109.296875 142.40625 109.347656 C 143.242188 109.386719 143.792969 109.957031 143.792969 110.757812 C 143.792969 112.339844 143.855469 113.964844 143.503906 115.484375 C 142.957031 117.855469 142.082031 120.148438 142.269531 122.65625 C 142.28125 122.882812 142.234375 123.21875 142.070312 123.34375 C 141.632812 123.703125 141.171875 124.167969 140.648438 124.265625 C 140 124.390625 139.488281 123.890625 139.375 123.230469 C 139.238281 122.394531 139.214844 121.535156 139.125 120.535156 Z M 139.140625 120.535156 " fill-opacity="1" fill-rule="nonzero"></path><path fill="#674386" d="M 131.054688 104.421875 C 131.207031 102.960938 131.304688 101.488281 131.503906 100.03125 C 131.617188 99.28125 132.515625 98.59375 133.089844 98.832031 C 133.601562 99.042969 134.050781 99.507812 134.398438 99.953125 C 134.597656 100.203125 134.660156 100.664062 134.625 101.015625 C 134.4375 103.085938 134.238281 105.15625 133.976562 107.226562 C 133.9375 107.5625 133.714844 107.949219 133.4375 108.148438 C 133.078125 108.425781 132.539062 108.710938 132.152344 108.636719 C 131.765625 108.5625 131.230469 108.074219 131.179688 107.714844 C 131.054688 106.628906 131.132812 105.519531 131.132812 104.421875 C 131.09375 104.421875 131.070312 104.421875 131.03125 104.421875 Z M 131.054688 104.421875 " fill-opacity="1" fill-rule="nonzero"></path><path fill="#674386" d="M 124.59375 85.621094 C 124.457031 86.234375 124.320312 87.195312 124.019531 88.09375 C 123.820312 88.679688 123.308594 89.039062 122.597656 88.976562 C 121.902344 88.914062 121.390625 88.480469 121.390625 87.855469 C 121.402344 86.671875 121.515625 85.460938 121.8125 84.3125 C 121.925781 83.914062 122.734375 83.425781 123.199219 83.464844 C 123.632812 83.503906 124.058594 84.125 124.433594 84.550781 C 124.570312 84.699219 124.507812 85.011719 124.582031 85.609375 Z M 124.59375 85.621094 " fill-opacity="1" fill-rule="nonzero"></path><path fill="#674386" d="M 131.792969 94.015625 C 131.867188 93.617188 131.917969 93.257812 132.015625 92.917969 C 132.265625 92.144531 132.839844 91.699219 133.636719 91.796875 C 134.449219 91.898438 134.847656 92.496094 134.886719 93.304688 C 134.921875 94.15625 134.886719 95.039062 134.136719 95.601562 C 133.800781 95.863281 133.238281 96.074219 132.863281 95.976562 C 132.492188 95.875 132.140625 95.414062 131.917969 95.027344 C 131.753906 94.742188 131.828125 94.328125 131.792969 94.015625 Z M 131.792969 94.015625 " fill-opacity="1" fill-rule="nonzero"></path><path fill="#674386" d="M 182.222656 107.203125 C 181.601562 108.949219 180.777344 110.40625 179.105469 111.117188 C 178.757812 111.269531 178.082031 111.09375 177.796875 110.820312 C 177.507812 110.546875 177.246094 109.796875 177.410156 109.546875 C 178.183594 108.351562 179.066406 107.203125 180.015625 106.140625 C 180.226562 105.90625 180.988281 105.953125 181.363281 106.128906 C 181.726562 106.304688 181.925781 106.816406 182.222656 107.203125 Z M 182.222656 107.203125 " fill-opacity="1" fill-rule="nonzero"></path><path fill="#674386" d="M 212.945312 202.675781 C 208.105469 202.589844 204.363281 199.546875 203.503906 195.253906 C 202.730469 191.386719 203.714844 187.957031 206.648438 185.226562 C 210.9375 181.234375 217.5 182.042969 220.644531 186.972656 C 222.800781 190.351562 222.875 193.933594 220.992188 197.4375 C 219.171875 200.832031 216.277344 202.625 212.945312 202.675781 Z M 212.558594 199.222656 C 215.441406 199.195312 218.035156 196.886719 218.660156 193.820312 C 219.246094 190.902344 217.835938 187.980469 215.292969 186.761719 C 214.007812 186.148438 212.683594 186.125 211.363281 186.523438 C 206.910156 187.882812 205.261719 193.820312 208.34375 197.300781 C 209.464844 198.574219 210.902344 199.121094 212.546875 199.222656 Z M 212.558594 199.222656 " fill-opacity="1" fill-rule="nonzero"></path></svg>