<svg xmlns="http://www.w3.org/2000/svg" xmlns:xlink="http://www.w3.org/1999/xlink" width="500" viewBox="0 0 375 374.999991" height="500" preserveAspectRatio="xMidYMid meet"><defs><clipPath id="51a2579f75"><path d="M 189 23 L 340.636719 23 L 340.636719 348 L 189 348 Z M 189 23 " clip-rule="nonzero"></path></clipPath><clipPath id="3f09c0a080"><path d="M 37 21 L 249 21 L 249 355.761719 L 37 355.761719 Z M 37 21 " clip-rule="nonzero"></path></clipPath></defs><g clip-path="url(#51a2579f75)"><path fill="#674386" d="M 297.707031 347.074219 L 200.007812 347.074219 C 196.921875 347.074219 193.839844 346.730469 190.753906 346.046875 C 190.066406 346.046875 189.722656 345.359375 189.722656 344.671875 C 189.722656 343.988281 190.410156 343.644531 191.09375 343.644531 C 193.839844 344.332031 196.921875 344.671875 199.664062 344.671875 L 297.707031 344.671875 C 319.644531 344.671875 337.472656 326.847656 337.472656 304.910156 L 337.472656 65.292969 C 337.472656 43.351562 319.644531 25.527344 297.707031 25.527344 L 200.007812 25.527344 C 197.265625 25.527344 194.523438 25.871094 191.78125 26.554688 C 191.09375 26.554688 190.410156 26.210938 190.410156 25.527344 C 190.410156 24.839844 190.753906 24.15625 191.4375 24.15625 C 194.523438 23.46875 197.265625 23.128906 200.351562 23.128906 L 297.707031 23.128906 C 321.015625 23.128906 340.214844 41.980469 340.214844 65.632812 L 340.214844 304.910156 C 340.214844 327.875 321.359375 347.074219 297.707031 347.074219 Z M 297.707031 347.074219 " fill-opacity="1" fill-rule="nonzero"></path></g><path fill="#674386" d="M 291.535156 335.417969 L 231.546875 335.417969 C 230.859375 335.417969 230.175781 334.734375 230.175781 334.046875 C 230.175781 333.359375 230.859375 332.675781 231.546875 332.675781 L 291.535156 332.675781 C 313.476562 332.675781 331.300781 314.851562 331.300781 292.910156 L 331.300781 73.863281 C 331.300781 51.921875 313.476562 34.097656 291.535156 34.097656 L 206.523438 34.097656 C 205.492188 34.097656 204.808594 34.097656 203.777344 34.097656 C 203.09375 34.097656 202.40625 33.753906 202.40625 33.066406 C 202.40625 32.382812 202.75 31.695312 203.4375 31.695312 C 204.464844 31.695312 205.148438 31.695312 206.179688 31.695312 L 291.191406 31.695312 C 314.847656 31.695312 334.042969 50.550781 334.042969 73.863281 L 334.042969 292.910156 C 334.042969 316.5625 314.847656 335.417969 291.535156 335.417969 Z M 291.535156 335.417969 " fill-opacity="1" fill-rule="nonzero"></path><path fill="#674386" d="M 249.027344 221.265625 C 244.914062 221.265625 240.800781 220.578125 237.03125 219.550781 C 236.34375 219.207031 236.003906 218.523438 236.003906 217.835938 C 236.34375 217.152344 237.03125 216.808594 237.714844 216.808594 C 256.914062 222.980469 277.480469 212.351562 283.652344 193.15625 C 289.820312 173.960938 279.195312 153.390625 260 147.222656 C 249.714844 143.792969 238.746094 145.164062 229.488281 150.992188 C 228.804688 151.335938 228.117188 151.335938 227.773438 150.648438 C 227.433594 149.964844 227.433594 149.277344 228.117188 148.933594 C 246.285156 137.621094 270.625 143.105469 281.9375 161.277344 C 293.25 179.445312 287.765625 203.78125 269.597656 215.09375 C 263.425781 219.207031 256.226562 221.265625 249.027344 221.265625 Z M 249.027344 221.265625 " fill-opacity="1" fill-rule="nonzero"></path><path fill="#674386" d="M 248.34375 195.898438 C 243.542969 195.898438 238.746094 195.898438 234.289062 195.554688 C 233.601562 195.554688 232.917969 194.871094 232.917969 194.183594 C 232.917969 193.5 233.601562 192.8125 234.289062 192.8125 C 238.746094 193.15625 243.542969 193.15625 248 193.15625 C 260 193.15625 271.996094 192.46875 283.996094 190.414062 C 284.679688 190.414062 285.367188 190.757812 285.367188 191.441406 C 285.367188 192.128906 285.023438 192.8125 284.335938 192.8125 C 272.683594 195.210938 260.683594 196.242188 248.34375 195.898438 Z M 248.34375 195.898438 " fill-opacity="1" fill-rule="nonzero"></path><path fill="#674386" d="M 284.679688 193.5 C 283.996094 193.5 283.308594 192.8125 283.308594 192.128906 C 283.308594 191.441406 283.652344 191.097656 284.335938 190.757812 C 298.390625 188.355469 304.90625 184.929688 304.90625 182.527344 C 304.90625 180.472656 299.761719 177.042969 285.367188 174.644531 C 284.679688 174.644531 284.335938 173.960938 284.335938 173.273438 C 284.335938 172.589844 285.023438 172.246094 285.707031 172.246094 C 295.648438 173.960938 307.304688 177.386719 307.304688 182.871094 C 307.648438 188.355469 295.308594 191.785156 284.679688 193.5 Z M 284.679688 193.5 " fill-opacity="1" fill-rule="nonzero"></path><path fill="#674386" d="M 279.539062 138.308594 C 274.394531 138.308594 270.28125 134.195312 270.28125 129.050781 C 270.28125 123.910156 274.394531 119.796875 279.539062 119.796875 C 284.679688 119.796875 288.792969 123.910156 288.792969 129.050781 C 288.792969 134.195312 284.679688 138.308594 279.539062 138.308594 Z M 279.539062 122.539062 C 275.765625 122.539062 273.023438 125.625 273.023438 129.050781 C 273.023438 132.824219 276.109375 135.566406 279.539062 135.566406 C 282.964844 135.566406 286.050781 132.480469 286.050781 129.050781 C 286.394531 125.625 283.308594 122.539062 279.539062 122.539062 Z M 279.539062 122.539062 " fill-opacity="1" fill-rule="nonzero"></path><path fill="#674386" d="M 243.886719 129.394531 C 239.773438 129.394531 236.34375 125.96875 236.34375 121.855469 C 236.34375 117.738281 239.773438 114.3125 243.886719 114.3125 C 248 114.3125 251.429688 117.738281 251.429688 121.855469 C 251.429688 126.308594 248 129.394531 243.886719 129.394531 Z M 243.886719 117.054688 C 241.144531 117.054688 238.746094 119.453125 238.746094 122.195312 C 238.746094 124.9375 241.144531 127.339844 243.886719 127.339844 C 246.628906 127.339844 249.027344 124.9375 249.027344 122.195312 C 249.027344 119.109375 246.628906 117.054688 243.886719 117.054688 Z M 243.886719 117.054688 " fill-opacity="1" fill-rule="nonzero"></path><path fill="#674386" d="M 302.503906 163.332031 C 298.390625 163.332031 294.964844 159.90625 294.964844 155.789062 C 294.964844 151.675781 298.390625 148.25 302.503906 148.25 C 306.621094 148.25 310.046875 151.675781 310.046875 155.789062 C 310.046875 159.90625 306.621094 163.332031 302.503906 163.332031 Z M 302.503906 150.648438 C 299.761719 150.648438 297.363281 153.046875 297.363281 155.789062 C 297.363281 158.535156 299.761719 160.933594 302.503906 160.933594 C 305.25 160.933594 307.648438 158.535156 307.648438 155.789062 C 307.648438 153.046875 305.25 150.648438 302.503906 150.648438 Z M 302.503906 150.648438 " fill-opacity="1" fill-rule="nonzero"></path><path fill="#674386" d="M 282.28125 237.378906 C 278.167969 237.378906 275.082031 234.292969 275.082031 230.179688 C 275.082031 226.066406 278.167969 222.980469 282.28125 222.980469 C 286.394531 222.980469 289.480469 226.066406 289.480469 230.179688 C 289.480469 234.292969 286.050781 237.378906 282.28125 237.378906 Z M 282.28125 225.722656 C 279.878906 225.722656 277.824219 227.777344 277.824219 230.179688 C 277.824219 232.578125 279.878906 234.636719 282.28125 234.636719 C 284.679688 234.636719 286.738281 232.578125 286.738281 230.179688 C 286.738281 227.777344 284.679688 225.722656 282.28125 225.722656 Z M 282.28125 225.722656 " fill-opacity="1" fill-rule="nonzero"></path><path fill="#674386" d="M 247.316406 245.949219 C 243.203125 245.949219 240.117188 242.863281 240.117188 238.75 C 240.117188 234.636719 243.203125 231.550781 247.316406 231.550781 C 251.429688 231.550781 254.511719 234.636719 254.511719 238.75 C 254.511719 242.863281 251.429688 245.949219 247.316406 245.949219 Z M 247.316406 234.292969 C 244.914062 234.292969 242.859375 236.347656 242.859375 238.75 C 242.859375 241.148438 244.914062 243.203125 247.316406 243.203125 C 249.714844 243.203125 251.769531 241.148438 251.769531 238.75 C 251.769531 236.347656 249.714844 234.292969 247.316406 234.292969 Z M 247.316406 234.292969 " fill-opacity="1" fill-rule="nonzero"></path><g clip-path="url(#3f09c0a080)"><path fill="#674386" d="M 109.167969 355.984375 C 87.914062 355.984375 69.746094 339.875 67 318.964844 L 37.519531 81.058594 C 34.777344 57.75 51.234375 36.496094 74.199219 33.753906 L 171.214844 21.757812 C 194.523438 19.011719 215.777344 35.46875 218.519531 58.433594 L 229.832031 149.277344 L 248 295.996094 C 250.742188 319.304688 234.289062 340.21875 211.320312 343.300781 L 114.308594 355.300781 C 112.59375 355.644531 110.878906 355.984375 109.167969 355.984375 Z M 176.699219 23.8125 C 174.984375 23.8125 173.269531 23.8125 171.898438 24.15625 L 74.542969 36.496094 C 52.945312 39.238281 37.519531 59.121094 39.921875 80.71875 L 69.402344 318.277344 C 72.144531 340.21875 92.027344 355.644531 113.964844 352.902344 L 210.976562 340.902344 C 232.917969 338.160156 248.34375 318.277344 245.601562 296.339844 L 216.121094 58.777344 C 213.71875 38.894531 196.921875 24.15625 176.699219 23.8125 Z M 176.699219 23.8125 " fill-opacity="1" fill-rule="nonzero"></path></g><path fill="#674386" d="M 114.308594 343.644531 C 93.054688 343.644531 74.886719 327.535156 72.144531 306.621094 L 45.0625 89.289062 C 42.320312 65.976562 58.773438 44.722656 81.742188 41.636719 L 166.070312 31.011719 C 189.382812 28.269531 210.636719 44.722656 213.378906 67.691406 L 240.457031 285.027344 C 243.203125 308.335938 226.746094 329.246094 203.777344 332.332031 L 203.777344 330.960938 L 203.777344 332.332031 L 119.449219 343.300781 C 117.734375 343.644531 116.023438 343.644531 114.308594 343.644531 Z M 171.554688 33.410156 C 169.84375 33.410156 168.128906 33.410156 166.757812 33.753906 L 82.085938 44.378906 C 60.488281 47.125 45.0625 67.003906 47.460938 88.945312 L 74.886719 306.28125 C 77.628906 328.21875 97.511719 343.644531 119.449219 340.902344 L 203.777344 330.277344 C 225.71875 327.535156 241.144531 307.652344 238.402344 285.710938 L 211.320312 68.375 C 208.578125 48.496094 191.4375 33.410156 171.554688 33.410156 Z M 171.554688 33.410156 " fill-opacity="1" fill-rule="nonzero"></path><path fill="#674386" d="M 143.789062 222.636719 C 129.046875 222.292969 114.652344 218.179688 102.308594 210.296875 C 101.625 209.953125 101.625 209.269531 101.96875 208.582031 C 111.566406 195.898438 125.277344 186.984375 141.046875 183.902344 C 157.84375 181.15625 175.328125 186.300781 193.152344 198.984375 C 193.839844 199.328125 193.839844 200.355469 193.496094 200.699219 C 180.46875 214.753906 162.644531 222.636719 143.789062 222.636719 Z M 104.710938 208.925781 C 153.042969 236.691406 184.238281 206.523438 190.066406 200.355469 C 173.269531 188.355469 156.816406 183.902344 141.390625 186.644531 C 126.992188 189.386719 113.964844 197.269531 104.710938 208.925781 Z M 104.710938 208.925781 " fill-opacity="1" fill-rule="nonzero"></path><path fill="#674386" d="M 92.367188 204.125 C 91.683594 204.125 90.996094 203.441406 90.996094 202.753906 C 90.996094 202.410156 90.996094 202.070312 91.339844 201.726562 C 110.195312 180.816406 130.078125 170.1875 150.644531 170.1875 C 180.46875 170.1875 201.378906 193.15625 201.378906 193.15625 C 201.722656 193.839844 201.722656 194.527344 201.378906 194.871094 C 200.695312 195.210938 200.007812 195.210938 199.664062 194.871094 C 199.324219 194.527344 179.441406 172.589844 150.644531 172.589844 C 130.761719 172.589844 111.566406 182.871094 93.054688 203.441406 C 93.054688 204.125 92.710938 204.125 92.367188 204.125 Z M 92.367188 204.125 " fill-opacity="1" fill-rule="nonzero"></path><path fill="#674386" d="M 94.082031 202.070312 C 93.742188 202.070312 93.742188 202.070312 93.398438 202.070312 L 74.886719 191.441406 C 74.199219 191.097656 74.199219 190.414062 74.542969 189.726562 C 74.886719 189.042969 75.570312 189.042969 76.257812 189.386719 L 94.769531 200.011719 C 95.453125 200.355469 95.453125 201.039062 95.113281 201.726562 C 95.113281 202.070312 94.425781 202.070312 94.082031 202.070312 Z M 94.082031 202.070312 " fill-opacity="1" fill-rule="nonzero"></path><path fill="#674386" d="M 102.308594 194.183594 C 101.96875 194.183594 101.625 194.183594 101.625 193.839844 L 73.171875 172.589844 C 72.488281 172.246094 72.488281 171.21875 73.171875 170.875 C 73.515625 170.53125 74.199219 170.1875 74.886719 170.53125 L 103.339844 191.785156 C 104.023438 192.128906 104.023438 193.15625 103.679688 193.5 C 102.996094 193.839844 102.652344 194.183594 102.308594 194.183594 Z M 102.308594 194.183594 " fill-opacity="1" fill-rule="nonzero"></path><path fill="#674386" d="M 110.878906 186.984375 C 110.539062 186.984375 110.195312 186.984375 109.851562 186.644531 L 77.972656 148.59375 C 77.628906 147.90625 77.628906 147.222656 77.972656 146.878906 C 78.65625 146.535156 79.34375 146.535156 79.683594 146.878906 L 111.566406 184.929688 C 111.910156 185.613281 111.910156 186.300781 111.566406 186.644531 C 111.566406 186.984375 111.222656 186.984375 110.878906 186.984375 Z M 110.878906 186.984375 " fill-opacity="1" fill-rule="nonzero"></path><path fill="#674386" d="M 121.507812 180.472656 C 121.164062 180.472656 120.480469 180.128906 120.480469 179.785156 L 102.308594 148.933594 C 101.96875 148.25 102.308594 147.5625 102.652344 147.222656 C 102.996094 146.878906 104.023438 147.222656 104.367188 147.5625 L 122.878906 178.414062 C 123.222656 179.101562 122.878906 179.785156 122.535156 180.128906 C 121.851562 180.472656 121.507812 180.472656 121.507812 180.472656 Z M 121.507812 180.472656 " fill-opacity="1" fill-rule="nonzero"></path><path fill="#674386" d="M 131.449219 176.015625 C 130.761719 176.015625 130.421875 175.671875 130.078125 175.332031 L 113.28125 129.394531 C 112.9375 128.710938 113.28125 128.023438 113.964844 127.679688 C 114.652344 127.339844 115.335938 127.679688 115.679688 128.367188 L 132.476562 174.300781 C 132.820312 174.988281 132.476562 175.671875 131.792969 176.015625 C 131.792969 176.015625 131.449219 176.015625 131.449219 176.015625 Z M 131.449219 176.015625 " fill-opacity="1" fill-rule="nonzero"></path><path fill="#674386" d="M 141.730469 173.617188 C 141.046875 173.617188 140.703125 173.273438 140.359375 172.589844 L 131.792969 102.65625 C 131.792969 101.972656 132.132812 101.285156 132.820312 101.285156 C 133.503906 101.285156 134.191406 101.628906 134.191406 102.3125 L 142.761719 172.246094 C 142.761719 172.929688 142.417969 173.617188 141.730469 173.617188 Z M 141.730469 173.617188 " fill-opacity="1" fill-rule="nonzero"></path><path fill="#674386" d="M 152.015625 172.929688 C 152.015625 172.929688 151.671875 172.929688 152.015625 172.929688 C 151.332031 172.929688 150.644531 172.246094 150.644531 171.558594 L 155.445312 122.195312 C 155.445312 121.511719 156.128906 120.824219 156.816406 121.167969 C 157.5 121.167969 158.1875 121.855469 157.84375 122.539062 L 153.042969 171.902344 C 153.042969 172.246094 152.703125 172.929688 152.015625 172.929688 Z M 152.015625 172.929688 " fill-opacity="1" fill-rule="nonzero"></path><path fill="#674386" d="M 162.644531 173.960938 C 162.644531 173.960938 162.300781 173.960938 162.300781 173.960938 C 161.613281 173.617188 161.273438 172.929688 161.273438 172.246094 L 171.554688 137.28125 C 171.898438 136.59375 172.585938 136.25 173.269531 136.25 C 173.957031 136.59375 174.296875 137.28125 174.296875 137.964844 L 164.015625 172.929688 C 163.671875 173.617188 163.328125 173.960938 162.644531 173.960938 Z M 162.644531 173.960938 " fill-opacity="1" fill-rule="nonzero"></path><path fill="#674386" d="M 174.296875 177.730469 C 173.957031 177.730469 173.957031 177.730469 173.613281 177.730469 C 172.925781 177.386719 172.585938 176.703125 172.925781 176.015625 L 194.867188 131.109375 C 195.210938 130.421875 195.894531 130.082031 196.582031 130.421875 C 197.265625 130.765625 197.609375 131.453125 197.265625 132.136719 L 175.667969 177.042969 C 175.328125 177.386719 174.984375 177.730469 174.296875 177.730469 Z M 174.296875 177.730469 " fill-opacity="1" fill-rule="nonzero"></path><path fill="#674386" d="M 183.898438 182.527344 C 183.210938 182.527344 182.527344 181.84375 182.527344 181.15625 C 182.527344 180.816406 182.527344 180.472656 182.867188 180.472656 L 205.835938 152.707031 C 206.179688 152.019531 207.207031 152.019531 207.550781 152.363281 C 207.894531 152.707031 208.234375 153.734375 207.894531 154.078125 L 184.925781 181.84375 C 184.582031 182.1875 184.238281 182.527344 183.898438 182.527344 Z M 183.898438 182.527344 " fill-opacity="1" fill-rule="nonzero"></path><path fill="#674386" d="M 193.839844 189.042969 C 193.152344 189.042969 192.464844 188.355469 192.464844 187.671875 C 192.464844 187.328125 192.464844 186.984375 192.808594 186.644531 L 207.550781 172.246094 C 207.894531 171.558594 208.921875 171.558594 209.265625 172.246094 C 209.605469 172.929688 209.949219 173.617188 209.265625 173.960938 L 194.523438 188.355469 C 194.523438 189.042969 194.179688 189.042969 193.839844 189.042969 Z M 193.839844 189.042969 " fill-opacity="1" fill-rule="nonzero"></path><path fill="#674386" d="M 99.910156 229.492188 C 97.511719 229.492188 95.453125 227.4375 95.453125 225.035156 C 95.453125 224.351562 95.453125 223.664062 95.796875 223.324219 C 96.824219 221.265625 99.226562 220.238281 101.625 220.921875 C 102.652344 221.265625 103.679688 222.292969 104.023438 223.324219 C 105.050781 225.722656 103.679688 228.121094 101.625 229.148438 C 100.9375 229.492188 100.597656 229.492188 99.910156 229.492188 Z M 99.910156 223.324219 C 99.226562 223.324219 98.539062 223.664062 98.195312 224.351562 C 97.855469 225.378906 98.195312 226.40625 99.226562 226.75 C 100.253906 227.09375 101.28125 226.75 101.625 225.722656 C 101.96875 224.695312 101.625 223.664062 100.597656 223.324219 C 100.597656 223.324219 100.253906 223.324219 99.910156 223.324219 Z M 99.910156 223.324219 " fill-opacity="1" fill-rule="nonzero"></path><path fill="#674386" d="M 121.164062 234.636719 C 118.765625 234.636719 116.707031 232.578125 116.707031 230.179688 C 116.707031 227.777344 118.765625 225.722656 121.164062 225.722656 C 123.5625 225.722656 125.621094 227.777344 125.621094 230.179688 C 125.621094 230.863281 125.621094 231.550781 125.277344 231.890625 C 124.59375 233.605469 122.878906 234.636719 121.164062 234.636719 Z M 121.164062 228.464844 C 120.136719 228.464844 119.449219 229.148438 119.449219 230.179688 C 119.449219 230.863281 119.792969 231.550781 120.480469 231.890625 C 121.507812 232.234375 122.535156 231.890625 122.878906 230.863281 C 123.222656 230.519531 123.222656 229.835938 122.878906 229.492188 C 122.535156 229.148438 122.191406 228.808594 121.851562 228.464844 C 121.851562 228.464844 121.507812 228.464844 121.164062 228.464844 Z M 121.164062 228.464844 " fill-opacity="1" fill-rule="nonzero"></path><path fill="#674386" d="M 143.105469 237.035156 C 142.417969 237.035156 141.730469 237.035156 141.390625 236.691406 C 139.332031 235.664062 138.304688 232.921875 138.988281 230.863281 C 140.019531 228.808594 142.761719 227.777344 144.816406 228.464844 C 146.875 229.492188 147.902344 232.234375 147.21875 234.292969 C 146.53125 236.007812 144.816406 237.035156 143.105469 237.035156 Z M 143.105469 230.863281 C 142.074219 230.863281 141.390625 231.550781 141.390625 232.578125 C 141.390625 233.605469 142.074219 234.292969 143.105469 234.292969 C 143.789062 234.292969 144.476562 233.949219 144.816406 233.261719 C 145.160156 232.921875 145.160156 232.234375 144.816406 231.890625 C 144.476562 231.207031 144.132812 230.863281 143.105469 230.863281 Z M 143.105469 230.863281 " fill-opacity="1" fill-rule="nonzero"></path><path fill="#674386" d="M 146.53125 216.464844 C 135.5625 216.464844 126.992188 207.554688 126.992188 196.925781 C 126.992188 194.183594 127.675781 191.441406 128.707031 189.042969 C 129.046875 188.355469 129.390625 188.015625 129.390625 187.328125 C 129.734375 186.644531 130.421875 186.644531 131.105469 186.984375 C 131.792969 187.328125 131.792969 188.015625 131.449219 188.699219 C 131.105469 189.042969 131.105469 189.726562 130.761719 190.070312 C 126.992188 198.640625 130.761719 208.582031 139.332031 212.695312 C 147.902344 216.464844 157.84375 212.695312 161.957031 204.125 C 164.699219 198.296875 163.671875 191.441406 159.558594 186.644531 C 159.214844 185.957031 159.214844 185.273438 159.558594 184.929688 C 160.242188 184.585938 160.929688 184.585938 161.273438 184.929688 C 166.414062 190.414062 167.441406 198.640625 164.355469 205.152344 C 161.273438 212.011719 154.414062 216.464844 146.53125 216.464844 Z M 146.53125 216.464844 " fill-opacity="1" fill-rule="nonzero"></path><path fill="#674386" d="M 145.847656 208.582031 C 136.933594 208.582031 130.078125 201.382812 130.078125 192.8125 C 130.078125 190.757812 130.421875 189.042969 131.105469 187.328125 C 131.449219 186.644531 132.132812 186.300781 132.820312 186.300781 C 133.503906 186.300781 133.847656 187.328125 133.847656 188.015625 C 133.847656 188.015625 133.847656 188.015625 133.847656 188.355469 C 131.449219 195.210938 134.875 203.097656 141.730469 205.496094 C 148.589844 207.894531 156.472656 204.46875 158.871094 197.613281 C 160.242188 193.839844 159.902344 189.726562 157.84375 185.957031 C 157.5 185.273438 157.84375 184.585938 158.1875 184.242188 C 158.871094 183.902344 159.558594 184.242188 159.902344 184.585938 C 164.355469 192.128906 161.957031 202.070312 154.414062 206.523438 C 151.332031 207.894531 148.589844 208.582031 145.847656 208.582031 Z M 145.847656 208.582031 " fill-opacity="1" fill-rule="nonzero"></path><path fill="#674386" d="M 170.527344 232.921875 C 168.128906 232.921875 166.070312 230.863281 166.070312 228.464844 C 166.070312 226.066406 168.128906 224.007812 170.527344 224.007812 C 172.925781 224.007812 174.984375 226.066406 174.984375 228.464844 C 174.984375 229.148438 174.984375 229.835938 174.640625 230.179688 C 173.957031 231.890625 172.242188 232.921875 170.527344 232.921875 Z M 170.527344 226.75 C 169.84375 226.75 169.15625 227.09375 168.8125 227.777344 C 168.472656 228.808594 168.8125 229.835938 169.84375 230.179688 C 170.871094 230.519531 171.898438 230.179688 172.242188 229.148438 C 172.585938 228.121094 172.242188 227.09375 171.214844 226.75 C 171.214844 226.75 170.871094 226.75 170.527344 226.75 Z M 170.527344 226.75 " fill-opacity="1" fill-rule="nonzero"></path><path fill="#674386" d="M 195.210938 220.238281 C 192.808594 220.238281 190.753906 218.179688 190.753906 215.78125 C 190.753906 213.382812 192.808594 211.324219 195.210938 211.324219 C 197.609375 211.324219 199.664062 213.382812 199.664062 215.78125 C 199.664062 216.464844 199.664062 217.152344 199.324219 217.496094 C 198.636719 219.207031 196.921875 220.238281 195.210938 220.238281 Z M 195.210938 214.066406 C 194.179688 214.066406 193.496094 214.753906 193.496094 215.78125 C 193.496094 216.808594 194.179688 217.496094 195.210938 217.496094 C 196.238281 217.496094 196.921875 216.808594 196.921875 215.78125 C 196.921875 215.09375 196.582031 214.410156 195.894531 214.066406 C 195.894531 214.066406 195.550781 214.066406 195.210938 214.066406 Z M 197.953125 217.152344 Z M 197.953125 217.152344 " fill-opacity="1" fill-rule="nonzero"></path></svg>